<?xml version="1.0" encoding="utf-8"?>
<!-- Generator: Adobe Illustrator 19.0.0, SVG Export Plug-In . SVG Version: 6.00 Build 0)  -->
<svg version="1.1" id="Calque_1" xmlns="http://www.w3.org/2000/svg" xmlns:xlink="http://www.w3.org/1999/xlink" x="0px" y="0px"
	 viewBox="0 0 128 128" style="enable-background:new 0 0 128 128;" xml:space="preserve">
<style type="text/css">
	.st0{fill:#FFFFFF;}
	.st1{fill:#F2F2F2;}
	.st2{fill:#F1F1F1;}
	.st3{fill:#F0F0F0;}
	.st4{fill:#EEEFEF;}
	.st5{fill:#EDEEED;}
	.st6{fill:#ECEDEC;}
	.st7{fill:#EBEBEB;}
	.st8{fill:#EAEAEA;}
	.st9{fill:#E9E9E9;}
	.st10{fill:#E8E8E8;}
	.st11{fill:#E7E7E7;}
	.st12{fill:#E6E6E6;}
	.st13{fill:#E5E5E5;}
	.st14{fill:#E3E4E4;}
	.st15{fill:#E2E3E3;}
	.st16{fill:#E1E2E2;}
	.st17{fill:#E0E1E1;}
	.st18{fill:#DFE0E0;}
	.st19{fill:#DEDFDF;}
	.st20{fill:#DDDDDE;}
	.st21{fill:#DCDCDD;}
	.st22{fill:#DBDBDC;}
	.st23{fill:#DADADB;}
	.st24{fill:#D9D9DA;}
	.st25{fill:#D8D8D9;}
	.st26{fill:#D6D7D8;}
	.st27{fill:#D5D6D7;}
	.st28{fill:#D4D5D6;}
	.st29{fill:#D3D4D5;}
	.st30{fill:#D2D3D4;}
	.st31{fill:#D1D2D3;}
	.st32{fill:#D0D1D2;}
	.st33{fill:#CFD0D1;}
	.st34{fill:#CECFD0;}
	.st35{fill:#CECECF;}
	.st36{fill:#CDCDCE;}
	.st37{fill:#CCCCCD;}
	.st38{fill:#CBCBCC;}
	.st39{fill:#CACACC;}
	.st40{fill:#C9C9CB;}
	.st41{fill:#C8C8CA;}
	.st42{fill:#C7C8C9;}
	.st43{fill:#C6C7C8;}
	.st44{fill:#C5C6C7;}
	.st45{fill:#C4C5C6;}
	.st46{fill:#C3C4C5;}
	.st47{fill:#C2C3C4;}
	.st48{fill:#C1C2C3;}
	.st49{fill:#C0C1C3;}
	.st50{fill:#BFC0C2;}
	.st51{fill:#BEBFC1;}
	.st52{fill:#BDBEC0;}
	.st53{fill:#E5492F;}
	.st54{display:none;}
	.st55{display:inline;fill:#F2F2F2;}
	.st56{display:inline;fill:#F1F1F1;}
	.st57{display:inline;fill:#F0F0F0;}
	.st58{display:inline;fill:#EEEFEF;}
	.st59{display:inline;fill:#EDEEED;}
	.st60{display:inline;fill:#ECEDEC;}
	.st61{display:inline;fill:#EBEBEB;}
	.st62{display:inline;fill:#EAEAEA;}
	.st63{display:inline;fill:#E9E9E9;}
	.st64{display:inline;fill:#E8E8E8;}
	.st65{display:inline;fill:#E7E7E7;}
	.st66{display:inline;fill:#E6E6E6;}
	.st67{display:inline;fill:#E5E5E5;}
	.st68{display:inline;fill:#E3E4E4;}
	.st69{display:inline;fill:#E2E3E3;}
	.st70{display:inline;fill:#E1E2E2;}
	.st71{display:inline;fill:#E0E1E1;}
	.st72{display:inline;fill:#DFE0E0;}
	.st73{display:inline;fill:#DEDFDF;}
	.st74{display:inline;fill:#DDDDDE;}
	.st75{display:inline;fill:#DCDCDD;}
	.st76{display:inline;fill:#DBDBDC;}
	.st77{display:inline;fill:#DADADB;}
	.st78{display:inline;fill:#D9D9DA;}
	.st79{display:inline;fill:#D8D8D9;}
	.st80{display:inline;fill:#D6D7D8;}
	.st81{display:inline;fill:#D5D6D7;}
	.st82{display:inline;fill:#D4D5D6;}
	.st83{display:inline;fill:#D3D4D5;}
	.st84{display:inline;fill:#D2D3D4;}
	.st85{display:inline;fill:#D1D2D3;}
	.st86{display:inline;fill:#D0D1D2;}
	.st87{display:inline;fill:#CFD0D1;}
	.st88{display:inline;fill:#CECFD0;}
	.st89{display:inline;fill:#CECECF;}
	.st90{display:inline;fill:#CDCDCE;}
	.st91{display:inline;fill:#CCCCCD;}
	.st92{display:inline;fill:#CBCBCC;}
	.st93{display:inline;fill:#CACACC;}
	.st94{display:inline;fill:#C9C9CB;}
	.st95{display:inline;fill:#C8C8CA;}
	.st96{display:inline;fill:#C7C8C9;}
	.st97{display:inline;fill:#C6C7C8;}
	.st98{display:inline;fill:#C5C6C7;}
	.st99{display:inline;fill:#C4C5C6;}
	.st100{display:inline;fill:#C3C4C5;}
	.st101{display:inline;fill:#C2C3C4;}
	.st102{display:inline;fill:#C1C2C3;}
	.st103{display:inline;fill:#C0C1C3;}
	.st104{display:inline;fill:#BFC0C2;}
	.st105{display:inline;fill:#BEBFC1;}
	.st106{display:inline;fill:#BDBEC0;}
	.st107{opacity:0.2;fill:#FFFFFF;}
</style>
<g id="XMLID_484_">
	<g id="XMLID_485_">
		<g id="XMLID_486_">
			<path id="XMLID_487_" class="st0" d="M106,44c0-23-18.6-41.6-41.6-41.6c-23,0-41.6,18.6-41.6,41.6c0,18.5,12.1,34.2,28.8,39.6
				l13.3,32.9l12.5-33C94,78.1,106,62.5,106,44z"/>
			<circle id="XMLID_488_" class="st0" cx="64.4" cy="44.6" r="28.8"/>
		</g>
		<g id="XMLID_489_">
			<ellipse id="XMLID_54_" class="st1" cx="64.8" cy="116.4" rx="27.6" ry="3.1"/>
			<ellipse id="XMLID_104_" class="st2" cx="64.8" cy="116.4" rx="27.1" ry="3.1"/>
			<ellipse id="XMLID_103_" class="st3" cx="64.8" cy="116.4" rx="26.6" ry="3"/>
			<ellipse id="XMLID_102_" class="st4" cx="64.8" cy="116.4" rx="26.1" ry="3"/>
			<ellipse id="XMLID_101_" class="st5" cx="64.8" cy="116.4" rx="25.6" ry="2.9"/>
			<ellipse id="XMLID_100_" class="st6" cx="64.8" cy="116.4" rx="25.2" ry="2.9"/>
			<ellipse id="XMLID_99_" class="st7" cx="64.8" cy="116.4" rx="24.7" ry="2.9"/>
			<ellipse id="XMLID_98_" class="st8" cx="64.8" cy="116.4" rx="24.2" ry="2.8"/>
			<ellipse id="XMLID_97_" class="st9" cx="64.8" cy="116.4" rx="23.7" ry="2.8"/>
			<ellipse id="XMLID_96_" class="st10" cx="64.8" cy="116.4" rx="23.2" ry="2.7"/>
			<ellipse id="XMLID_95_" class="st11" cx="64.8" cy="116.4" rx="22.7" ry="2.7"/>
			<ellipse id="XMLID_94_" class="st12" cx="64.8" cy="116.4" rx="22.2" ry="2.6"/>
			<ellipse id="XMLID_93_" class="st13" cx="64.8" cy="116.4" rx="21.8" ry="2.6"/>
			<ellipse id="XMLID_92_" class="st14" cx="64.8" cy="116.4" rx="21.3" ry="2.5"/>
			<ellipse id="XMLID_91_" class="st15" cx="64.8" cy="116.4" rx="20.8" ry="2.5"/>
			<ellipse id="XMLID_90_" class="st16" cx="64.8" cy="116.4" rx="20.3" ry="2.4"/>
			<ellipse id="XMLID_89_" class="st17" cx="64.8" cy="116.4" rx="19.8" ry="2.4"/>
			<ellipse id="XMLID_88_" class="st18" cx="64.8" cy="116.4" rx="19.3" ry="2.3"/>
			<ellipse id="XMLID_87_" class="st19" cx="64.8" cy="116.4" rx="18.8" ry="2.3"/>
			<ellipse id="XMLID_86_" class="st20" cx="64.8" cy="116.4" rx="18.3" ry="2.2"/>
			<ellipse id="XMLID_85_" class="st21" cx="64.8" cy="116.4" rx="17.9" ry="2.2"/>
			<ellipse id="XMLID_84_" class="st22" cx="64.8" cy="116.4" rx="17.4" ry="2.1"/>
			<ellipse id="XMLID_83_" class="st23" cx="64.8" cy="116.4" rx="16.9" ry="2.1"/>
			<ellipse id="XMLID_82_" class="st24" cx="64.8" cy="116.4" rx="16.4" ry="2"/>
			<ellipse id="XMLID_81_" class="st25" cx="64.8" cy="116.4" rx="15.9" ry="2"/>
			<ellipse id="XMLID_80_" class="st26" cx="64.8" cy="116.4" rx="15.4" ry="1.9"/>
			<ellipse id="XMLID_79_" class="st27" cx="64.8" cy="116.4" rx="14.9" ry="1.9"/>
			<ellipse id="XMLID_78_" class="st28" cx="64.8" cy="116.4" rx="14.5" ry="1.8"/>
			<ellipse id="XMLID_77_" class="st29" cx="64.8" cy="116.4" rx="14" ry="1.8"/>
			<ellipse id="XMLID_76_" class="st30" cx="64.8" cy="116.4" rx="13.5" ry="1.7"/>
			<ellipse id="XMLID_75_" class="st31" cx="64.8" cy="116.4" rx="13" ry="1.7"/>
			<ellipse id="XMLID_74_" class="st32" cx="64.8" cy="116.4" rx="12.5" ry="1.6"/>
			<ellipse id="XMLID_73_" class="st33" cx="64.8" cy="116.4" rx="12" ry="1.6"/>
			<ellipse id="XMLID_72_" class="st34" cx="64.8" cy="116.4" rx="11.5" ry="1.5"/>
			<ellipse id="XMLID_71_" class="st35" cx="64.8" cy="116.4" rx="11" ry="1.5"/>
			<ellipse id="XMLID_70_" class="st36" cx="64.8" cy="116.4" rx="10.6" ry="1.4"/>
			<ellipse id="XMLID_69_" class="st37" cx="64.8" cy="116.4" rx="10.1" ry="1.4"/>
			<ellipse id="XMLID_68_" class="st38" cx="64.8" cy="116.4" rx="9.6" ry="1.3"/>
			<ellipse id="XMLID_67_" class="st39" cx="64.8" cy="116.4" rx="9.1" ry="1.3"/>
			<ellipse id="XMLID_66_" class="st40" cx="64.8" cy="116.4" rx="8.6" ry="1.2"/>
			<ellipse id="XMLID_65_" class="st41" cx="64.8" cy="116.4" rx="8.1" ry="1.2"/>
			<ellipse id="XMLID_64_" class="st42" cx="64.8" cy="116.4" rx="7.6" ry="1.1"/>
			<ellipse id="XMLID_63_" class="st43" cx="64.8" cy="116.4" rx="7.2" ry="1.1"/>
			<ellipse id="XMLID_62_" class="st44" cx="64.8" cy="116.4" rx="6.7" ry="1"/>
			<ellipse id="XMLID_61_" class="st45" cx="64.8" cy="116.4" rx="6.2" ry="1"/>
			<ellipse id="XMLID_60_" class="st46" cx="64.8" cy="116.4" rx="5.7" ry="1"/>
			<ellipse id="XMLID_59_" class="st47" cx="64.8" cy="116.4" rx="5.2" ry="0.9"/>
			<ellipse id="XMLID_58_" class="st48" cx="64.8" cy="116.4" rx="4.7" ry="0.9"/>
			<ellipse id="XMLID_57_" class="st49" cx="64.8" cy="116.4" rx="4.2" ry="0.8"/>
			<ellipse id="XMLID_56_" class="st50" cx="64.8" cy="116.4" rx="3.7" ry="0.8"/>
			<ellipse id="XMLID_55_" class="st51" cx="64.8" cy="116.4" rx="3.3" ry="0.7"/>
			<ellipse id="XMLID_53_" class="st52" cx="64.8" cy="116.4" rx="2.8" ry="0.7"/>
		</g>
	</g>
</g>
<g id="XMLID_547_">
	<g id="XMLID_548_">
		<g id="XMLID_549_">
			<path id="XMLID_550_" class="st53" d="M102.1,45.5c0-20.8-16.9-37.7-37.7-37.7c-20.8,0-37.7,16.9-37.7,37.7
				c0,16.8,11,31,26.1,35.9l12.1,29.9l11.4-29.9C91.3,76.3,102.1,62.2,102.1,45.5z"/>
			<circle id="XMLID_551_" class="st0" cx="64.4" cy="44.6" r="28.8"/>
		</g>
		<g id="XMLID_552_" class="st54">
			<ellipse id="XMLID_2_" class="st55" cx="64.8" cy="109.7" rx="27.6" ry="3.1"/>
			<ellipse id="XMLID_52_" class="st56" cx="64.8" cy="109.7" rx="27.1" ry="3.1"/>
			<ellipse id="XMLID_51_" class="st57" cx="64.8" cy="109.7" rx="26.6" ry="3"/>
			<ellipse id="XMLID_50_" class="st58" cx="64.8" cy="109.7" rx="26.1" ry="3"/>
			<ellipse id="XMLID_49_" class="st59" cx="64.8" cy="109.7" rx="25.6" ry="2.9"/>
			<ellipse id="XMLID_48_" class="st60" cx="64.8" cy="109.7" rx="25.2" ry="2.9"/>
			<ellipse id="XMLID_47_" class="st61" cx="64.8" cy="109.7" rx="24.7" ry="2.9"/>
			<ellipse id="XMLID_46_" class="st62" cx="64.8" cy="109.7" rx="24.2" ry="2.8"/>
			<ellipse id="XMLID_45_" class="st63" cx="64.8" cy="109.7" rx="23.7" ry="2.8"/>
			<ellipse id="XMLID_44_" class="st64" cx="64.8" cy="109.7" rx="23.2" ry="2.7"/>
			<ellipse id="XMLID_43_" class="st65" cx="64.8" cy="109.7" rx="22.7" ry="2.7"/>
			<ellipse id="XMLID_42_" class="st66" cx="64.8" cy="109.7" rx="22.2" ry="2.6"/>
			<ellipse id="XMLID_41_" class="st67" cx="64.8" cy="109.7" rx="21.8" ry="2.6"/>
			<ellipse id="XMLID_40_" class="st68" cx="64.8" cy="109.7" rx="21.3" ry="2.5"/>
			<ellipse id="XMLID_39_" class="st69" cx="64.8" cy="109.7" rx="20.8" ry="2.5"/>
			<ellipse id="XMLID_38_" class="st70" cx="64.8" cy="109.7" rx="20.3" ry="2.4"/>
			<ellipse id="XMLID_37_" class="st71" cx="64.8" cy="109.7" rx="19.8" ry="2.4"/>
			<ellipse id="XMLID_36_" class="st72" cx="64.8" cy="109.7" rx="19.3" ry="2.3"/>
			<ellipse id="XMLID_35_" class="st73" cx="64.8" cy="109.7" rx="18.8" ry="2.3"/>
			<ellipse id="XMLID_34_" class="st74" cx="64.8" cy="109.7" rx="18.3" ry="2.2"/>
			<ellipse id="XMLID_33_" class="st75" cx="64.8" cy="109.7" rx="17.9" ry="2.2"/>
			<ellipse id="XMLID_32_" class="st76" cx="64.8" cy="109.7" rx="17.4" ry="2.1"/>
			<ellipse id="XMLID_31_" class="st77" cx="64.8" cy="109.7" rx="16.9" ry="2.1"/>
			<ellipse id="XMLID_30_" class="st78" cx="64.8" cy="109.7" rx="16.4" ry="2"/>
			<ellipse id="XMLID_29_" class="st79" cx="64.8" cy="109.7" rx="15.9" ry="2"/>
			<ellipse id="XMLID_28_" class="st80" cx="64.8" cy="109.7" rx="15.4" ry="1.9"/>
			<ellipse id="XMLID_27_" class="st81" cx="64.8" cy="109.7" rx="14.9" ry="1.9"/>
			<ellipse id="XMLID_26_" class="st82" cx="64.8" cy="109.7" rx="14.5" ry="1.8"/>
			<ellipse id="XMLID_25_" class="st83" cx="64.8" cy="109.7" rx="14" ry="1.8"/>
			<ellipse id="XMLID_24_" class="st84" cx="64.8" cy="109.7" rx="13.5" ry="1.7"/>
			<ellipse id="XMLID_23_" class="st85" cx="64.8" cy="109.7" rx="13" ry="1.7"/>
			<ellipse id="XMLID_22_" class="st86" cx="64.8" cy="109.7" rx="12.5" ry="1.6"/>
			<ellipse id="XMLID_21_" class="st87" cx="64.8" cy="109.7" rx="12" ry="1.6"/>
			<ellipse id="XMLID_20_" class="st88" cx="64.8" cy="109.7" rx="11.5" ry="1.5"/>
			<ellipse id="XMLID_19_" class="st89" cx="64.8" cy="109.7" rx="11" ry="1.5"/>
			<ellipse id="XMLID_18_" class="st90" cx="64.8" cy="109.7" rx="10.6" ry="1.4"/>
			<ellipse id="XMLID_17_" class="st91" cx="64.8" cy="109.7" rx="10.1" ry="1.4"/>
			<ellipse id="XMLID_16_" class="st92" cx="64.8" cy="109.7" rx="9.6" ry="1.3"/>
			<ellipse id="XMLID_15_" class="st93" cx="64.8" cy="109.7" rx="9.1" ry="1.3"/>
			<ellipse id="XMLID_14_" class="st94" cx="64.8" cy="109.7" rx="8.6" ry="1.2"/>
			<ellipse id="XMLID_13_" class="st95" cx="64.8" cy="109.7" rx="8.1" ry="1.2"/>
			<ellipse id="XMLID_12_" class="st96" cx="64.8" cy="109.7" rx="7.6" ry="1.1"/>
			<ellipse id="XMLID_11_" class="st97" cx="64.8" cy="109.7" rx="7.2" ry="1.1"/>
			<ellipse id="XMLID_10_" class="st98" cx="64.8" cy="109.7" rx="6.7" ry="1"/>
			<ellipse id="XMLID_9_" class="st99" cx="64.8" cy="109.7" rx="6.2" ry="1"/>
			<ellipse id="XMLID_8_" class="st100" cx="64.8" cy="109.7" rx="5.7" ry="1"/>
			<ellipse id="XMLID_7_" class="st101" cx="64.8" cy="109.7" rx="5.2" ry="0.9"/>
			<ellipse id="XMLID_6_" class="st102" cx="64.8" cy="109.7" rx="4.7" ry="0.9"/>
			<ellipse id="XMLID_5_" class="st103" cx="64.8" cy="109.7" rx="4.2" ry="0.8"/>
			<ellipse id="XMLID_4_" class="st104" cx="64.8" cy="109.7" rx="3.7" ry="0.8"/>
			<ellipse id="XMLID_3_" class="st105" cx="64.8" cy="109.7" rx="3.3" ry="0.7"/>
			<ellipse id="XMLID_1_" class="st106" cx="64.8" cy="109.7" rx="2.8" ry="0.7"/>
		</g>
	</g>
</g>
<path id="XMLID_610_" class="st53" d="M39.8,56.6c0,0,3-2.7,4.9-4.7c0.8-0.8,2-0.9,2.8-0.3c1.8,1.3,3.4,1.3,5.2-0.4
	c0.7-0.7,8.3-10.4,9.1-11.6c0.6-1,2-2.4,3.3-2.4c1,0,2.3,1.1,3,1.8c1.2,1.3,4.9,8,6.9,8c0.8,0,1.7-1.6,2.3-2.1
	c1.1-1,1.5-0.4,2.6,0.6c1.6,1.6,9.3,10,9.3,10s-9.5-16.7-11.5-17c-1-0.2-1.5,0.6-2.4,0.6c-0.7,0-1.6-0.7-2.1-1.2c-3-2.9-6.1-8-8.8-8
	c-2.9,0-11.8,15-12.9,16.8c-0.4,0.6-1,1.5-1.8,1.5c-1,0-1.6-1.4-2.5-1.4C45.2,46.9,39.8,56.6,39.8,56.6z"/>
<circle id="XMLID_611_" class="st107" cx="86" cy="25.7" r="6.5"/>
<circle id="XMLID_612_" class="st107" cx="45.5" cy="51.1" r="6.5"/>
</svg>
